<?xml version="1.0" encoding="UTF-8" standalone="no"?>
<svg
   xmlns:dc="http://purl.org/dc/elements/1.1/"
   xmlns:cc="http://creativecommons.org/ns#"
   xmlns:rdf="http://www.w3.org/1999/02/22-rdf-syntax-ns#"
   xmlns:svg="http://www.w3.org/2000/svg"
   xmlns="http://www.w3.org/2000/svg"
   viewBox="0 0 528.36627 409.85376"
   height="409.85376"
   width="528.36627"
   xml:space="preserve"
   version="1.1"
   id="svg2"><metadata
     id="metadata8"><rdf:RDF><cc:Work
         rdf:about=""><dc:format>image/svg+xml</dc:format><dc:type
           rdf:resource="http://purl.org/dc/dcmitype/StillImage" /></cc:Work></rdf:RDF></metadata><defs
     id="defs6" /><g
     transform="matrix(1.25,0,0,-1.25,0,409.85375)"
     id="g10"><g
       transform="translate(0,327.484)"
       id="g12"><path
         id="path14"
         style="fill:none;stroke:#000000;stroke-width:0.79699999;stroke-linecap:butt;stroke-linejoin:miter;stroke-miterlimit:10;stroke-dasharray:none;stroke-opacity:1"
         d="M 0,0 422.693,0" /></g><text
       id="text16"
       style="font-variant:normal;font-weight:normal;font-size:9.96259975px;font-family:CMR10;-inkscape-font-specification:CMR10;writing-mode:lr-tb;fill:#000000;fill-opacity:1;fill-rule:nonzero;stroke:none"
       transform="matrix(1,0,0,-1,5.978,315.929)"><tspan
         id="tspan18"
         y="0"
         x="0 3.5974948 7.4719501 11.899329 359.26401 366.73596 375.03778 380.01907 385.55429 390.81058 398.01254 401.88699 406.86829">ItemAmount($)</tspan></text>
<g
       transform="translate(0,310.378)"
       id="g20"><path
         id="path22"
         style="fill:none;stroke:#000000;stroke-width:0.498;stroke-linecap:butt;stroke-linejoin:miter;stroke-miterlimit:10;stroke-dasharray:none;stroke-opacity:1"
         d="M 0,0 422.693,0" /></g><text
       id="text24"
       style="font-variant:normal;font-weight:normal;font-size:9.96259975px;font-family:CMBX10;-inkscape-font-specification:CMBX10;writing-mode:lr-tb;fill:#000000;fill-opacity:1;fill-rule:nonzero;stroke:none"
       transform="matrix(1,0,0,-1,5.978,298.972)"><tspan
         id="tspan26"
         y="0"
         x="0 7.5277405 12.046776 16.50205 19.684105 29.231264 34.800358 39.255634 44.50692 54.687698 62.215439 68.261742 74.945648 80.196938 86.562042 92.927147 98.496239 104.86134 108.0434 117.12032 123.48543 128.73671 138.28387 147.82805 157.37521 162.94431 167.39958 172.65086 177.36916 180.55121 186.1203 193.11803 199.80194 205.05322 213.59715 218.11618 223.36746 232.91463 238.16591 242.68495 247.14023 252.39151">EstimatedExpendabledemomaterialpersemester</tspan></text>
<text
       id="text28"
       style="font-variant:normal;font-weight:normal;font-size:9.96259975px;font-family:CMR10;-inkscape-font-specification:CMR10;writing-mode:lr-tb;fill:#000000;fill-opacity:1;fill-rule:nonzero;stroke:none"
       transform="matrix(1,0,0,-1,376.865,298.972)"><tspan
         id="tspan30"
         y="0"
         x="0">2</tspan></text>
<text
       id="text32"
       style="font-variant:normal;font-weight:normal;font-size:9.96259975px;font-family:CMSY10;-inkscape-font-specification:CMSY10;writing-mode:lr-tb;fill:#000000;fill-opacity:1;fill-rule:nonzero;stroke:none"
       transform="matrix(1,0,0,-1,384.06,298.972)"><tspan
         id="tspan34"
         y="0"
         x="0">×</tspan></text>
<text
       id="text36"
       style="font-variant:normal;font-weight:normal;font-size:9.96259975px;font-family:CMR10;-inkscape-font-specification:CMR10;writing-mode:lr-tb;fill:#000000;fill-opacity:1;fill-rule:nonzero;stroke:none"
       transform="matrix(1,0,0,-1,394.023,298.972)"><tspan
         id="tspan38"
         y="0"
         x="0 4.9812999">54</tspan></text>
<text
       id="text40"
       style="font-variant:normal;font-weight:normal;font-size:9.96259975px;font-family:CMMI10;-inkscape-font-specification:CMMI10;writing-mode:lr-tb;fill:#000000;fill-opacity:1;fill-rule:nonzero;stroke:none"
       transform="matrix(1,0,0,-1,403.986,298.972)"><tspan
         id="tspan42"
         y="0"
         x="0">.</tspan></text>
<text
       id="text44"
       style="font-variant:normal;font-weight:normal;font-size:9.96259975px;font-family:CMR10;-inkscape-font-specification:CMR10;writing-mode:lr-tb;fill:#000000;fill-opacity:1;fill-rule:nonzero;stroke:none"
       transform="matrix(1,0,0,-1,406.753,298.972)"><tspan
         id="tspan46"
         y="0"
         x="0 4.9812999">43</tspan><tspan
         id="tspan48"
         y="12.045"
         x="-388.599 -381.40402 -377.50165 -372.79932 -367.82001 -362.83871 -360.07111 -351.7623 -344.29034 -341.52274 -337.62036 -334.29984 -326.68942 -322.78705 -314.21124 -307.01627 -304.24866 -299.5463 -295.11493 -289.02979 -278.79022 -273.255 -270.4874 -266.61295 -262.18555 -256.1004 -247.7916 -245.02399 -239.48877">CrayolaAir-DryClay,White,5lbs</tspan></text>
<text
       id="text50"
       style="font-variant:normal;font-weight:normal;font-size:6.97380018px;font-family:CMSY7;-inkscape-font-specification:CMSY7;writing-mode:lr-tb;fill:#000000;fill-opacity:1;fill-rule:nonzero;stroke:none"
       transform="matrix(1,0,0,-1,171.192,290.542)"><tspan
         id="tspan52"
         y="0"
         x="0">‡</tspan></text>
<text
       id="text54"
       style="font-variant:normal;font-weight:normal;font-size:9.96259975px;font-family:CMR10;-inkscape-font-specification:CMR10;writing-mode:lr-tb;fill:#000000;fill-opacity:1;fill-rule:nonzero;stroke:none"
       transform="matrix(1,0,0,-1,399.004,286.927)"><tspan
         id="tspan56"
         y="0"
         x="0 4.9812999 7.7489104 12.73021">8.18</tspan><tspan
         id="tspan58"
         y="12.045"
         x="-380.85001 -371.71729 -367.28992 -362.30859 -354.00977 -344.87704 -339.89575 -335.99341 -330.45816 -327.69055 -323.26318 -316.00644 -311.02512 -306.04382 -297.742 -286.12262 -278.30496 -273.32367 -265.02182 -257.26694 -249.93347 -245.50609 -239.97087 -237.20326 -232.22195 -227.79457 -223.3672 -215.06537 -210.63799 -205.38171 -198.18971 -189.05699 -184.0757 -180.17336 -174.63812 -171.87051 -167.44313 -160.18639 -153.54829 -148.567 -140.26816 -133.48761 -130.72 -126.29262 -121.86524">MegaMarbles14mmGameReplacementMarbles-60Piece</tspan></text>
<text
       id="text60"
       style="font-variant:normal;font-weight:normal;font-size:6.97380018px;font-family:CMSY7;-inkscape-font-specification:CMSY7;writing-mode:lr-tb;fill:#000000;fill-opacity:1;fill-rule:nonzero;stroke:none"
       transform="matrix(1,0,0,-1,281.569,278.497)"><tspan
         id="tspan62"
         y="0"
         x="0">‡</tspan></text>
<text
       id="text64"
       style="font-variant:normal;font-weight:normal;font-size:9.96259975px;font-family:CMR10;-inkscape-font-specification:CMR10;writing-mode:lr-tb;fill:#000000;fill-opacity:1;fill-rule:nonzero;stroke:none"
       transform="matrix(1,0,0,-1,399.004,274.882)"><tspan
         id="tspan66"
         y="0"
         x="0 4.9812999 7.7489104 12.73021">8.27</tspan><tspan
         id="tspan68"
         y="12.045"
         x="-380.85001 -375.86871 -370.88739 -362.58856 -356.36194 -351.38062 -347.50616 -343.0788 -334.49301 -327.02109 -323.09183 -319.16257 -314.18127 -310.27893 -306.40448 -301.97708 -293.12433 -287.58911 -282.60782 -279.84021 -277.07257 -268.21982 -261.02484 -256.04352 -253.27592 -248.29462 -241.06476 -234.00826 -229.02695 -226.25934 -223.49173 -218.24144 -213.26013 -207.72491 -203.79567 -197.70055 -192.71925 -187.73795 -183.31058">12”LatexAssortedSolidColorBalloons,10ct</tspan></text>
<text
       id="text70"
       style="font-variant:normal;font-weight:normal;font-size:6.97380018px;font-family:CMSY7;-inkscape-font-specification:CMSY7;writing-mode:lr-tb;fill:#000000;fill-opacity:1;fill-rule:nonzero;stroke:none"
       transform="matrix(1,0,0,-1,219.566,266.453)"><tspan
         id="tspan72"
         y="0"
         x="0">‡</tspan></text>
<text
       id="text74"
       style="font-variant:normal;font-weight:normal;font-size:9.96259975px;font-family:CMR10;-inkscape-font-specification:CMR10;writing-mode:lr-tb;fill:#000000;fill-opacity:1;fill-rule:nonzero;stroke:none"
       transform="matrix(1,0,0,-1,411.734,262.837)"><tspan
         id="tspan76"
         y="0"
         x="0">2</tspan><tspan
         id="tspan78"
         y="12.045"
         x="-393.57999 -386.38501 -381.12476 -376.69739 -371.71606 -368.39554 -361.20056 -356.21927 -353.45163 -345.1528 -337.95779 -332.9765 -327.44128 -323.51202 -317.41693 -312.43561 -304.13678 -295.284 -290.3027 -285.87534 -279.78021 -274.79892 -266.50006 -259.99847 -255.01717 -250.86874">Coca-ColaCans,12foz,24Pack</tspan></text>
<text
       id="text80"
       style="font-variant:normal;font-weight:normal;font-size:6.97380018px;font-family:CMSY7;-inkscape-font-specification:CMSY7;writing-mode:lr-tb;fill:#000000;fill-opacity:1;fill-rule:nonzero;stroke:none"
       transform="matrix(1,0,0,-1,166.127,254.408)"><tspan
         id="tspan82"
         y="0"
         x="0">‡</tspan></text>
<text
       id="text84"
       style="font-variant:normal;font-weight:normal;font-size:9.96259975px;font-family:CMR10;-inkscape-font-specification:CMR10;writing-mode:lr-tb;fill:#000000;fill-opacity:1;fill-rule:nonzero;stroke:none"
       transform="matrix(1,0,0,-1,399.004,250.792)"><tspan
         id="tspan86"
         y="0"
         x="0 4.9812999 7.7489104 12.73021">7.88</tspan><tspan
         id="tspan88"
         y="12.045"
         x="-380.85001 -373.79349 -368.81219 -363.27698 -357.74176 -353.31436 -345.56946 -338.51294 -333.53165 -330.76404 -324.66891 -315.53619 -310.00098 -307.23337 -303.35892 -300.59131 -297.27075 -290.76917 -285.78787 -281.63943 -273.06363 -269.18918 -264.20789 -255.89908 -248.70409 -243.72278 -238.18756 -232.93129 -229.05684 -221.86484 -215.2168 -208.71519 -203.7339 -199.83154 -196.23605 -187.66025 -182.12502 -176.5898 -171.05458 -165.51936 -162.75175 -159.98415 -155.55676">BounceBallMulti-Pack(48Count)-PartySupplies</tspan></text>
<text
       id="text90"
       style="font-variant:normal;font-weight:normal;font-size:6.97380018px;font-family:CMSY7;-inkscape-font-specification:CMSY7;writing-mode:lr-tb;fill:#000000;fill-opacity:1;fill-rule:nonzero;stroke:none"
       transform="matrix(1,0,0,-1,247.378,242.363)"><tspan
         id="tspan92"
         y="0"
         x="0">‡</tspan></text>
<text
       id="text94"
       style="font-variant:normal;font-weight:normal;font-size:9.96259975px;font-family:CMR10;-inkscape-font-specification:CMR10;writing-mode:lr-tb;fill:#000000;fill-opacity:1;fill-rule:nonzero;stroke:none"
       transform="matrix(1,0,0,-1,406.753,238.747)"><tspan
         id="tspan96"
         y="0"
         x="0 4.9812999">12</tspan><tspan
         id="tspan98"
         y="12.045"
         x="-388.599 -381.12704 -375.59183 -372.82422 -367.84491 -363.41754 -359.51517 -355.58594 -350.60464 -344.50952 -337.17606 -331.64081 -326.11557 -320.30139 -315.87402 -308.64417 -301.58765 -296.60635 -291.07114 -285.53589 -281.60666 -275.52148 -269.98627 -267.21866 -262.79129 -255.04636 -250.06506 -245.08376 -240.10246 -234.00734 -229.02605 -220.7272 -212.1514 -207.17009 -202.1888 -197.20749 -192.2262 -186.13107 -181.14978 -172.85092 -165.79442 -160.81311 -155.27789 -149.74268 -145.81343 -140.83212 -135.85083 -130.86952 -122.57068 -119.80307 -110.94034 -104.43875 -99.457451 -95.309021">UniversalRubberBands,Size117,7”x1/8”,50Bands/1/4lbPack</tspan></text>
<text
       id="text100"
       style="font-variant:normal;font-weight:normal;font-size:6.97380018px;font-family:CMSY7;-inkscape-font-specification:CMSY7;writing-mode:lr-tb;fill:#000000;fill-opacity:1;fill-rule:nonzero;stroke:none"
       transform="matrix(1,0,0,-1,316.702,230.318)"><tspan
         id="tspan102"
         y="0"
         x="0">‡</tspan></text>
<text
       id="text104"
       style="font-variant:normal;font-weight:normal;font-size:9.96259975px;font-family:CMR10;-inkscape-font-specification:CMR10;writing-mode:lr-tb;fill:#000000;fill-opacity:1;fill-rule:nonzero;stroke:none"
       transform="matrix(1,0,0,-1,411.734,226.702)"><tspan
         id="tspan106"
         y="0"
         x="0">4</tspan><tspan
         id="tspan108"
         y="12.044"
         x="-393.57999 -386.79947 -382.89709 -377.9158 -369.61398 -364.63266 -356.33383 -349.00037 -344.01904 -338.48383 -332.94861 -324.08588 -314.95316 -309.97186 -304.99057 -299.4653 -295.02795 -291.1535 -287.22427 -281.1391 -276.15781 -271.17651 -266.19522 -261.2139 -255.12875 -250.14745 -245.16615 -240.18484 -234.64963 -229.39137">PromagRoundMagnets,3/4”,50/pkg</tspan></text>
<text
       id="text110"
       style="font-variant:normal;font-weight:normal;font-size:6.97380018px;font-family:CMSY7;-inkscape-font-specification:CMSY7;writing-mode:lr-tb;fill:#000000;fill-opacity:1;fill-rule:nonzero;stroke:none"
       transform="matrix(1,0,0,-1,187.326,218.273)"><tspan
         id="tspan112"
         y="0"
         x="0">‡</tspan></text>
<text
       id="text114"
       style="font-variant:normal;font-weight:normal;font-size:9.96259975px;font-family:CMR10;-inkscape-font-specification:CMR10;writing-mode:lr-tb;fill:#000000;fill-opacity:1;fill-rule:nonzero;stroke:none"
       transform="matrix(1,0,0,-1,399.004,214.658)"><tspan
         id="tspan116"
         y="0"
         x="0 4.9812999 7.7489104 12.73021">5.10</tspan><tspan
         id="tspan118"
         y="12.045"
         x="-380.85001 -375.73022 -371.30283 -367.42838 -364.10785 -357.3273 -351.79208 -345.9809 -341.55353 -332.70074 -323.56802 -318.58673 -314.68439 -310.75513 -305.21991 -296.91809 -291.9368 -289.16916 -286.40155 -281.68924 -274.49426 -270.565 -264.47986 -259.49857 -251.19971 -246.21841">Jet-PufedMarshmallows,10oz</tspan></text>
<text
       id="text120"
       style="font-variant:normal;font-weight:normal;font-size:6.97380018px;font-family:CMSY7;-inkscape-font-specification:CMSY7;writing-mode:lr-tb;fill:#000000;fill-opacity:1;fill-rule:nonzero;stroke:none"
       transform="matrix(1,0,0,-1,157.216,206.228)"><tspan
         id="tspan122"
         y="0"
         x="0">‡</tspan></text>
<text
       id="text124"
       style="font-variant:normal;font-weight:normal;font-size:9.96259975px;font-family:CMR10;-inkscape-font-specification:CMR10;writing-mode:lr-tb;fill:#000000;fill-opacity:1;fill-rule:nonzero;stroke:none"
       transform="matrix(1,0,0,-1,411.734,202.613)"><tspan
         id="tspan126"
         y="0"
         x="0">7</tspan></text>
<text
       id="text128"
       style="font-variant:normal;font-weight:normal;font-size:9.96259975px;font-family:CMBX10;-inkscape-font-specification:CMBX10;writing-mode:lr-tb;fill:#000000;fill-opacity:1;fill-rule:nonzero;stroke:none"
       transform="matrix(1,0,0,-1,5.978,190.658)"><tspan
         id="tspan130"
         y="0"
         x="0 4.3446898 10.390992 16.11849 21.369778 27.416079 31.871353 37.59985 42.318134 52.190075 57.28196 62.000248 67.251534 72.820625 77.275902 80.457954 86.186455 96.367233 100.82251 106.551 111.00628 116.57537 123.5731 130.257 135.5083 144.05222 148.57126 153.82254 163.36971 168.62099 173.14003 177.59531 182.84659">Inventorycreationtotalpersemester</tspan></text>
<text
       id="text132"
       style="font-variant:normal;font-weight:normal;font-size:9.96259975px;font-family:CMR10;-inkscape-font-specification:CMR10;writing-mode:lr-tb;fill:#000000;fill-opacity:1;fill-rule:nonzero;stroke:none"
       transform="matrix(1,0,0,-1,356.94,190.658)"><tspan
         id="tspan134"
         y="0"
         x="0 4.9812999 9.9625998">338</tspan></text>
<text
       id="text136"
       style="font-variant:normal;font-weight:normal;font-size:9.96259975px;font-family:CMMI10;-inkscape-font-specification:CMMI10;writing-mode:lr-tb;fill:#000000;fill-opacity:1;fill-rule:nonzero;stroke:none"
       transform="matrix(1,0,0,-1,371.884,190.658)"><tspan
         id="tspan138"
         y="0"
         x="0">.</tspan></text>
<text
       id="text140"
       style="font-variant:normal;font-weight:normal;font-size:9.96259975px;font-family:CMR10;-inkscape-font-specification:CMR10;writing-mode:lr-tb;fill:#000000;fill-opacity:1;fill-rule:nonzero;stroke:none"
       transform="matrix(1,0,0,-1,374.651,190.658)"><tspan
         id="tspan142"
         y="0"
         x="0 6.6450543 10.519509 15.50081 20.482109">2(428</tspan></text>
<text
       id="text144"
       style="font-variant:normal;font-weight:normal;font-size:9.96259975px;font-family:CMMI10;-inkscape-font-specification:CMMI10;writing-mode:lr-tb;fill:#000000;fill-opacity:1;fill-rule:nonzero;stroke:none"
       transform="matrix(1,0,0,-1,400.111,190.658)"><tspan
         id="tspan146"
         y="0"
         x="0">.</tspan></text>
<text
       id="text148"
       style="font-variant:normal;font-weight:normal;font-size:9.96259975px;font-family:CMR10;-inkscape-font-specification:CMR10;writing-mode:lr-tb;fill:#000000;fill-opacity:1;fill-rule:nonzero;stroke:none"
       transform="matrix(1,0,0,-1,402.879,190.658)"><tspan
         id="tspan150"
         y="0"
         x="0 4.9812999 9.9625998">17)</tspan><tspan
         id="tspan152"
         y="12.045"
         x="-384.72501 -376.9761 -369.22717 -360.37442 -351.2417 -346.81433 -342.93985 -337.95856 -331.86343 -324.52997 -319.54868 -314.01346 -308.47824 -299.62546 -293.25739 -287.73212 -281.91794 -274.16306 -269.18176 -264.20044 -259.21915 -254.23785 -245.93901 -235.01103 -224.21158 -219.23027 -214.24898 -205.95013 -196.40596 -188.93401 -186.1664 -180.63118 -172.32935 -169.56174 -164.30547 -158.77025 -147.1409 -139.94591 -134.96461 -131.06226 -125.52704 -121.09966">K&amp;SMetalRoundTube9/32”DX12”LAluminumCarded</tspan></text>
<text
       id="text154"
       style="font-variant:normal;font-weight:normal;font-size:6.97380018px;font-family:CMSY7;-inkscape-font-specification:CMSY7;writing-mode:lr-tb;fill:#000000;fill-opacity:1;fill-rule:nonzero;stroke:none"
       transform="matrix(1,0,0,-1,287.312,182.228)"><tspan
         id="tspan156"
         y="0"
         x="0">‡</tspan></text>
<text
       id="text158"
       style="font-variant:normal;font-weight:normal;font-size:9.96259975px;font-family:CMR10;-inkscape-font-specification:CMR10;writing-mode:lr-tb;fill:#000000;fill-opacity:1;fill-rule:nonzero;stroke:none"
       transform="matrix(1,0,0,-1,399.004,178.613)"><tspan
         id="tspan160"
         y="0"
         x="0 4.9812999 7.7489104 12.73021">4.95</tspan><tspan
         id="tspan162"
         y="11.955"
         x="-380.85001 -375.31479 -371.44034 -366.45901 -360.9238 -355.38858 -350.40729 -346.50494 -337.65216 -330.3187 -325.89133 -317.02859 -310.80197 -305.82065 -301.89142 -297.46402">StandardRedLaser</tspan></text>
<text
       id="text164"
       style="font-variant:normal;font-weight:normal;font-size:6.97380018px;font-family:CMSY7;-inkscape-font-specification:CMSY7;writing-mode:lr-tb;fill:#000000;fill-opacity:1;fill-rule:nonzero;stroke:none"
       transform="matrix(1,0,0,-1,105.438,170.273)"><tspan
         id="tspan166"
         y="0"
         x="0">∗</tspan></text>
<text
       id="text168"
       style="font-variant:normal;font-weight:normal;font-size:9.96259975px;font-family:CMR10;-inkscape-font-specification:CMR10;writing-mode:lr-tb;fill:#000000;fill-opacity:1;fill-rule:nonzero;stroke:none"
       transform="matrix(1,0,0,-1,406.753,166.658)"><tspan
         id="tspan170"
         y="0"
         x="0 4.9812999">28</tspan><tspan
         id="tspan172"
         y="11.956"
         x="-388.599 -380.78134 -376.879 -372.45163 -368.02423 -359.17148 -352.39093 -347.96356 -342.98224 -337.44702 -332.46573 -324.43289 -315.85709 -309.63046 -304.64914 -300.71991 -296.29251 -289.07263 -282.56107 -277.57977 -274.82211 -269.55588 -265.68143 -261.25406">GreenEconomyLaserPointer</tspan></text>
<text
       id="text174"
       style="font-variant:normal;font-weight:normal;font-size:6.97380018px;font-family:CMSY7;-inkscape-font-specification:CMSY7;writing-mode:lr-tb;fill:#000000;fill-opacity:1;fill-rule:nonzero;stroke:none"
       transform="matrix(1,0,0,-1,149.398,158.318)"><tspan
         id="tspan176"
         y="0"
         x="0">∗</tspan></text>
<text
       id="text178"
       style="font-variant:normal;font-weight:normal;font-size:9.96259975px;font-family:CMR10;-inkscape-font-specification:CMR10;writing-mode:lr-tb;fill:#000000;fill-opacity:1;fill-rule:nonzero;stroke:none"
       transform="matrix(1,0,0,-1,406.753,154.702)"><tspan
         id="tspan180"
         y="0"
         x="0 4.9812999">49</tspan><tspan
         id="tspan182"
         y="11.955"
         x="-388.599 -381.40402 -376.70166 -366.17917 -357.04645 -352.06516 -347.08386 -341.54861 -337.12125">CowMagnet</tspan></text>
<text
       id="text184"
       style="font-variant:normal;font-weight:normal;font-size:6.97380018px;font-family:CMSY7;-inkscape-font-specification:CMSY7;writing-mode:lr-tb;fill:#000000;fill-opacity:1;fill-rule:nonzero;stroke:none"
       transform="matrix(1,0,0,-1,73.502,146.363)"><tspan
         id="tspan186"
         y="0"
         x="0">∗</tspan></text>
<text
       id="text188"
       style="font-variant:normal;font-weight:normal;font-size:9.96259975px;font-family:CMR10;-inkscape-font-specification:CMR10;writing-mode:lr-tb;fill:#000000;fill-opacity:1;fill-rule:nonzero;stroke:none"
       transform="matrix(1,0,0,-1,399.004,142.747)"><tspan
         id="tspan190"
         y="0"
         x="0 4.9812999 7.7489104 12.73021">8.95</tspan><tspan
         id="tspan192"
         y="11.955"
         x="-380.85001 -375.31479 -371.44034 -367.01294 -362.58557 -356.5004 -349.44391 -344.46259 -337.23273 -328.10004 -323.11871 -318.13742 -312.6022 -308.17484 -304.30038 -300.37112 -294.28595 -288.75073 -283.76944 -281.00183">SteelBarMagnets,pair</tspan></text>
<text
       id="text194"
       style="font-variant:normal;font-weight:normal;font-size:6.97380018px;font-family:CMSY7;-inkscape-font-specification:CMSY7;writing-mode:lr-tb;fill:#000000;fill-opacity:1;fill-rule:nonzero;stroke:none"
       transform="matrix(1,0,0,-1,121.904,134.407)"><tspan
         id="tspan196"
         y="0"
         x="0">∗</tspan></text>
<text
       id="text198"
       style="font-variant:normal;font-weight:normal;font-size:9.96259975px;font-family:CMR10;-inkscape-font-specification:CMR10;writing-mode:lr-tb;fill:#000000;fill-opacity:1;fill-rule:nonzero;stroke:none"
       transform="matrix(1,0,0,-1,399.004,130.792)"><tspan
         id="tspan200"
         y="0"
         x="0 4.9812999 7.7489104 12.73021">5.90</tspan><tspan
         id="tspan202"
         y="11.955"
         x="-380.85001 -371.71729 -366.73599 -361.7547 -356.21945 -351.79208 -347.91763 -345.15002 -337.40509 -328.27237 -323.29108 -319.38873 -313.85352 -311.08591 -306.65851">MagneticMarbles</tspan></text>
<text
       id="text204"
       style="font-variant:normal;font-weight:normal;font-size:6.97380018px;font-family:CMSY7;-inkscape-font-specification:CMSY7;writing-mode:lr-tb;fill:#000000;fill-opacity:1;fill-rule:nonzero;stroke:none"
       transform="matrix(1,0,0,-1,96.278,122.452)"><tspan
         id="tspan206"
         y="0"
         x="0">∗</tspan></text>
<text
       id="text208"
       style="font-variant:normal;font-weight:normal;font-size:9.96259975px;font-family:CMR10;-inkscape-font-specification:CMR10;writing-mode:lr-tb;fill:#000000;fill-opacity:1;fill-rule:nonzero;stroke:none"
       transform="matrix(1,0,0,-1,381.846,118.837)"><tspan
         id="tspan210"
         y="0"
         x="0">5</tspan></text>
<text
       id="text212"
       style="font-variant:normal;font-weight:normal;font-size:9.96259975px;font-family:CMSY10;-inkscape-font-specification:CMSY10;writing-mode:lr-tb;fill:#000000;fill-opacity:1;fill-rule:nonzero;stroke:none"
       transform="matrix(1,0,0,-1,389.042,118.837)"><tspan
         id="tspan214"
         y="0"
         x="0">×</tspan></text>
<text
       id="text216"
       style="font-variant:normal;font-weight:normal;font-size:9.96259975px;font-family:CMR10;-inkscape-font-specification:CMR10;writing-mode:lr-tb;fill:#000000;fill-opacity:1;fill-rule:nonzero;stroke:none"
       transform="matrix(1,0,0,-1,399.004,118.837)"><tspan
         id="tspan218"
         y="0"
         x="0">6</tspan></text>
<text
       id="text220"
       style="font-variant:normal;font-weight:normal;font-size:9.96259975px;font-family:CMMI10;-inkscape-font-specification:CMMI10;writing-mode:lr-tb;fill:#000000;fill-opacity:1;fill-rule:nonzero;stroke:none"
       transform="matrix(1,0,0,-1,403.986,118.837)"><tspan
         id="tspan222"
         y="0"
         x="0">.</tspan></text>
<text
       id="text224"
       style="font-variant:normal;font-weight:normal;font-size:9.96259975px;font-family:CMR10;-inkscape-font-specification:CMR10;writing-mode:lr-tb;fill:#000000;fill-opacity:1;fill-rule:nonzero;stroke:none"
       transform="matrix(1,0,0,-1,406.753,118.837)"><tspan
         id="tspan226"
         y="0"
         x="0 4.9812999">95</tspan><tspan
         id="tspan228"
         y="11.955"
         x="-388.599 -381.40402 -378.63641 -374.20901 -369.22772 -362.00781 -354.81284 -349.83154 -341.52969 -335.99448 -331.01318 -327.08392 -323.15469 -318.71735 -311.47055 -307.5961 -303.66684 -299.23947 -292.04745 -287.06616 -280.69409 -275.71277 -270.73148">ClearCompasses(setof20)</tspan></text>
<text
       id="text230"
       style="font-variant:normal;font-weight:normal;font-size:6.97380018px;font-family:CMSY7;-inkscape-font-specification:CMSY7;writing-mode:lr-tb;fill:#000000;fill-opacity:1;fill-rule:nonzero;stroke:none"
       transform="matrix(1,0,0,-1,139.892,110.497)"><tspan
         id="tspan232"
         y="0"
         x="0">∗</tspan></text>
<text
       id="text234"
       style="font-variant:normal;font-weight:normal;font-size:9.96259975px;font-family:CMR10;-inkscape-font-specification:CMR10;writing-mode:lr-tb;fill:#000000;fill-opacity:1;fill-rule:nonzero;stroke:none"
       transform="matrix(1,0,0,-1,406.753,106.882)"><tspan
         id="tspan236"
         y="0"
         x="0 4.9812999">18</tspan><tspan
         id="tspan238"
         y="12.045"
         x="-388.599 -380.98856 -377.08621 -368.51041 -364.91293 -360.48553">DryIce</tspan></text>
<text
       id="text240"
       style="font-variant:normal;font-weight:normal;font-size:6.97380018px;font-family:CMSY7;-inkscape-font-specification:CMSY7;writing-mode:lr-tb;fill:#000000;fill-opacity:1;fill-rule:nonzero;stroke:none"
       transform="matrix(1,0,0,-1,50.699,98.452)"><tspan
         id="tspan242"
         y="0"
         x="0">†</tspan></text>
<text
       id="text244"
       style="font-variant:normal;font-weight:normal;font-size:9.96259975px;font-family:CMR10;-inkscape-font-specification:CMR10;writing-mode:lr-tb;fill:#000000;fill-opacity:1;fill-rule:nonzero;stroke:none"
       transform="matrix(1,0,0,-1,332.808,94.837)"><tspan
         id="tspan246"
         y="0"
         x="0 4.9812999">10</tspan></text>
<text
       id="text248"
       style="font-variant:normal;font-weight:normal;font-size:9.96259975px;font-family:CMSY10;-inkscape-font-specification:CMSY10;writing-mode:lr-tb;fill:#000000;fill-opacity:1;fill-rule:nonzero;stroke:none"
       transform="matrix(1,0,0,-1,344.985,94.837)"><tspan
         id="tspan250"
         y="0"
         x="0">×</tspan></text>
<text
       id="text252"
       style="font-variant:normal;font-weight:normal;font-size:9.96259975px;font-family:CMR10;-inkscape-font-specification:CMR10;writing-mode:lr-tb;fill:#000000;fill-opacity:1;fill-rule:nonzero;stroke:none"
       transform="matrix(1,0,0,-1,354.947,94.837)"><tspan
         id="tspan254"
         y="0"
         x="0 3.8744552">(1</tspan></text>
<text
       id="text256"
       style="font-variant:normal;font-weight:normal;font-size:9.96259975px;font-family:CMMI10;-inkscape-font-specification:CMMI10;writing-mode:lr-tb;fill:#000000;fill-opacity:1;fill-rule:nonzero;stroke:none"
       transform="matrix(1,0,0,-1,363.803,94.837)"><tspan
         id="tspan258"
         y="0"
         x="0">.</tspan></text>
<text
       id="text260"
       style="font-variant:normal;font-weight:normal;font-size:9.96259975px;font-family:CMR10;-inkscape-font-specification:CMR10;writing-mode:lr-tb;fill:#000000;fill-opacity:1;fill-rule:nonzero;stroke:none"
       transform="matrix(1,0,0,-1,366.57,94.837)"><tspan
         id="tspan262"
         y="0"
         x="0 4.9812999">07</tspan></text>
<text
       id="text264"
       style="font-variant:normal;font-weight:normal;font-size:9.96259975px;font-family:CMMI10;-inkscape-font-specification:CMMI10;writing-mode:lr-tb;fill:#000000;fill-opacity:1;fill-rule:nonzero;stroke:none"
       transform="matrix(1,0,0,-1,376.533,94.837)"><tspan
         id="tspan266"
         y="0"
         x="0">/</tspan></text>
<text
       id="text268"
       style="font-variant:normal;font-weight:normal;font-size:9.96259975px;font-family:CMR10;-inkscape-font-specification:CMR10;writing-mode:lr-tb;fill:#000000;fill-opacity:1;fill-rule:nonzero;stroke:none"
       transform="matrix(1,0,0,-1,381.514,94.837)"><tspan
         id="tspan270"
         y="0"
         x="0 5.8141732 10.795473 16.330694 21.865915 27.401134 31.330385">pounds)</tspan><tspan
         id="tspan272"
         y="12.045"
         x="-363.35999 -357.13336 -354.36575 -349.10751 -343.5723 -340.80469 -331.9519 -324.47995 -321.71234 -317.83789 -313.93555 -308.95425 -303.97293 -299.54556 -290.69281 -285.71149 -280.73019 -275.7489">LiquidNitrogen160L</tspan></text>
<text
       id="text274"
       style="font-variant:normal;font-weight:normal;font-size:6.97380018px;font-family:CMSY7;-inkscape-font-specification:CMSY7;writing-mode:lr-tb;fill:#000000;fill-opacity:1;fill-rule:nonzero;stroke:none"
       transform="matrix(1,0,0,-1,111.997,86.407)"><tspan
         id="tspan276"
         y="0"
         x="0">†</tspan></text>
<text
       id="text278"
       style="font-variant:normal;font-weight:normal;font-size:9.96259975px;font-family:CMR10;-inkscape-font-specification:CMR10;writing-mode:lr-tb;fill:#000000;fill-opacity:1;fill-rule:nonzero;stroke:none"
       transform="matrix(1,0,0,-1,352.927,82.792)"><tspan
         id="tspan280"
         y="0"
         x="0 4.9812999 9.9625998">160</tspan></text>
<text
       id="text282"
       style="font-variant:normal;font-weight:normal;font-size:9.96259975px;font-family:CMSY10;-inkscape-font-specification:CMSY10;writing-mode:lr-tb;fill:#000000;fill-opacity:1;fill-rule:nonzero;stroke:none"
       transform="matrix(1,0,0,-1,370.085,82.792)"><tspan
         id="tspan284"
         y="0"
         x="0">×</tspan></text>
<text
       id="text286"
       style="font-variant:normal;font-weight:normal;font-size:9.96259975px;font-family:CMR10;-inkscape-font-specification:CMR10;writing-mode:lr-tb;fill:#000000;fill-opacity:1;fill-rule:nonzero;stroke:none"
       transform="matrix(1,0,0,-1,380.048,82.792)"><tspan
         id="tspan288"
         y="0"
         x="0 3.8744552">(0</tspan></text>
<text
       id="text290"
       style="font-variant:normal;font-weight:normal;font-size:9.96259975px;font-family:CMMI10;-inkscape-font-specification:CMMI10;writing-mode:lr-tb;fill:#000000;fill-opacity:1;fill-rule:nonzero;stroke:none"
       transform="matrix(1,0,0,-1,388.903,82.792)"><tspan
         id="tspan292"
         y="0"
         x="0">.</tspan></text>
<text
       id="text294"
       style="font-variant:normal;font-weight:normal;font-size:9.96259975px;font-family:CMR10;-inkscape-font-specification:CMR10;writing-mode:lr-tb;fill:#000000;fill-opacity:1;fill-rule:nonzero;stroke:none"
       transform="matrix(1,0,0,-1,391.671,82.792)"><tspan
         id="tspan296"
         y="0"
         x="0 4.9812999">74</tspan></text>
<text
       id="text298"
       style="font-variant:normal;font-weight:normal;font-size:9.96259975px;font-family:CMMI10;-inkscape-font-specification:CMMI10;writing-mode:lr-tb;fill:#000000;fill-opacity:1;fill-rule:nonzero;stroke:none"
       transform="matrix(1,0,0,-1,401.633,82.792)"><tspan
         id="tspan300"
         y="0"
         x="0">/</tspan></text>
<text
       id="text302"
       style="font-variant:normal;font-weight:normal;font-size:9.96259975px;font-family:CMR10;-inkscape-font-specification:CMR10;writing-mode:lr-tb;fill:#000000;fill-opacity:1;fill-rule:nonzero;stroke:none"
       transform="matrix(1,0,0,-1,406.615,82.792)"><tspan
         id="tspan304"
         y="0"
         x="0 6.226625">L)</tspan><tspan
         id="tspan306"
         y="12.045"
         x="-388.461 -382.23438 -379.46677 -374.2085 -368.67328 -365.90567 -357.05292 -349.58096 -346.81335 -342.9389 -339.03653 -334.05524 -329.07394 -324.64658 -315.79379 -311.35645 -306.37515 -301.1189 -297.24445 -292.26312 -289.49551 -283.9603 -279.53293 -272.31302 -268.43857 -265.67096 -259.30884 -253.77362 -249.34624 -244.91887 -239.38364 -234.95627 -229.42104">LiquidNitrogencontainer(ifneeded)</tspan></text>
<text
       id="text308"
       style="font-variant:normal;font-weight:normal;font-size:6.97380018px;font-family:CMSY7;-inkscape-font-specification:CMSY7;writing-mode:lr-tb;fill:#000000;fill-opacity:1;fill-rule:nonzero;stroke:none"
       transform="matrix(1,0,0,-1,181.071,74.362)"><tspan
         id="tspan310"
         y="0"
         x="0">†</tspan></text>
<text
       id="text312"
       style="font-variant:normal;font-weight:normal;font-size:9.96259975px;font-family:CMR10;-inkscape-font-specification:CMR10;writing-mode:lr-tb;fill:#000000;fill-opacity:1;fill-rule:nonzero;stroke:none"
       transform="matrix(1,0,0,-1,386.274,70.747)"><tspan
         id="tspan314"
         y="0"
         x="0 3.8744552 8.8557549 13.837055 16.604666 21.585966 26.567265">(89.97)</tspan><tspan
         id="tspan316"
         y="11.955"
         x="-368.12 -361.33945 -356.08121 -352.20673 -348.30438 -343.87701 -335.57516 -327.83026 -320.0126 -314.75433 -310.85199 -305.8707 -301.94144 -297.51407 -292.53275 -286.7186">ExtremeGyroscope</tspan></text>
<text
       id="text318"
       style="font-variant:normal;font-weight:normal;font-size:6.97380018px;font-family:CMSY7;-inkscape-font-specification:CMSY7;writing-mode:lr-tb;fill:#000000;fill-opacity:1;fill-rule:nonzero;stroke:none"
       transform="matrix(1,0,0,-1,103.985,62.407)"><tspan
         id="tspan320"
         y="0"
         x="0">∗</tspan></text>
<text
       id="text322"
       style="font-variant:normal;font-weight:normal;font-size:9.96259975px;font-family:CMR10;-inkscape-font-specification:CMR10;writing-mode:lr-tb;fill:#000000;fill-opacity:1;fill-rule:nonzero;stroke:none"
       transform="matrix(1,0,0,-1,406.753,58.792)"><tspan
         id="tspan324"
         y="0"
         x="0 4.9812999">11</tspan><tspan
         id="tspan326"
         y="11.955"
         x="-388.599 -381.12704 -376.14575 -373.37814 -368.39685 -363.41553 -359.51318 -354.53189 -348.99667 -343.46146 -340.69385 -332.94891 -325.33847 -322.57086 -316.75967 -312.85733 -307.87604 -303.44867 -299.57419 -296.80658 -291.82529 -282.96255 -275.1449 -271.24255 -266.26126 -262.38681 -259.6192 -254.09393 -245.78513 -237.48628 -230.9847 -226.00339 -221.845">HolographicDifractionGrating5Pack</tspan></text>
<text
       id="text328"
       style="font-variant:normal;font-weight:normal;font-size:6.97380018px;font-family:CMSY7;-inkscape-font-specification:CMSY7;writing-mode:lr-tb;fill:#000000;fill-opacity:1;fill-rule:nonzero;stroke:none"
       transform="matrix(1,0,0,-1,190.162,50.452)"><tspan
         id="tspan330"
         y="0"
         x="0">∗</tspan></text>
<text
       id="text332"
       style="font-variant:normal;font-weight:normal;font-size:9.96259975px;font-family:CMR10;-inkscape-font-specification:CMR10;writing-mode:lr-tb;fill:#000000;fill-opacity:1;fill-rule:nonzero;stroke:none"
       transform="matrix(1,0,0,-1,399.004,46.837)"><tspan
         id="tspan334"
         y="0"
         x="0 4.9812999 7.7489104 12.73021">3.55</tspan><tspan
         id="tspan336"
         y="12.045"
         x="-380.85001 -375.31479 -370.05652 -364.5213 -359.54001 -355.63763 -347.89273 -340.07507 -337.30746 -332.32617 -328.39691 -321.14017 -312.00745 -309.23984 -305.33746 -301.43512 -296.45383 -289.23392 -281.76199 -277.83273 -273.90347 -268.92218 -265.01984 -261.14539 -256.71799 -247.86523 -242.33002 -239.56239 -235.13503 -230.70764 -226.7784 -220.68327 -215.70197 -210.72067 -205.73938 -198.95883 -193.70056">SquareGlassMirrorAssortedSizes,25/Pkg</tspan></text>
<text
       id="text338"
       style="font-variant:normal;font-weight:normal;font-size:6.97380018px;font-family:CMSY7;-inkscape-font-specification:CMSY7;writing-mode:lr-tb;fill:#000000;fill-opacity:1;fill-rule:nonzero;stroke:none"
       transform="matrix(1,0,0,-1,210.281,38.407)"><tspan
         id="tspan340"
         y="0"
         x="0">‡</tspan></text>
<text
       id="text342"
       style="font-variant:normal;font-weight:normal;font-size:9.96259975px;font-family:CMR10;-inkscape-font-specification:CMR10;writing-mode:lr-tb;fill:#000000;fill-opacity:1;fill-rule:nonzero;stroke:none"
       transform="matrix(1,0,0,-1,406.753,34.792)"><tspan
         id="tspan344"
         y="0"
         x="0 4.9812999">10</tspan><tspan
         id="tspan346"
         y="11.955"
         x="-388.599 -383.06378 -380.29617 -377.52856 -371.99335 -364.24841 -355.11569 -350.1344 -344.59918 -339.3429 -335.46844 -331.04108 -322.17834 -315.67676 -310.69547 -307.92786 -302.94653 -299.04419 -296.27658 -291.84921 -289.0816 -283.54639 -275.24753 -268.74393 -265.97632 -263.20871 -259.33426 -254.90689 -251.00453 -243.75774 -239.88329 -234.34807 -229.36676 -225.20837 -216.63257 -211.65128 -206.66997">SlideMountedPolarizingFilters(pack35)</tspan></text>
<text
       id="text348"
       style="font-variant:normal;font-weight:normal;font-size:6.97380018px;font-family:CMSY7;-inkscape-font-specification:CMSY7;writing-mode:lr-tb;fill:#000000;fill-opacity:1;fill-rule:nonzero;stroke:none"
       transform="matrix(1,0,0,-1,203.958,26.452)"><tspan
         id="tspan350"
         y="0"
         x="0">∗</tspan></text>
<text
       id="text352"
       style="font-variant:normal;font-weight:normal;font-size:9.96259975px;font-family:CMR10;-inkscape-font-specification:CMR10;writing-mode:lr-tb;fill:#000000;fill-opacity:1;fill-rule:nonzero;stroke:none"
       transform="matrix(1,0,0,-1,406.753,22.837)"><tspan
         id="tspan354"
         y="0"
         x="0 4.9812999">35</tspan></text>
<text
       id="text356"
       style="font-variant:normal;font-weight:normal;font-size:9.96259975px;font-family:CMCSC10;-inkscape-font-specification:CMCSC10;writing-mode:lr-tb;fill:#000000;fill-opacity:1;fill-rule:nonzero;stroke:none"
       transform="matrix(1,0,0,-1,5.977,8.391)"><tspan
         id="tspan358"
         y="0"
         x="0 7.8315997 14.163829 19.385227 25.495289 34.374954 39.932095 45.489231 55.254574 59.815449 65.372589 72.811661 78.368797 82.92968 88.818573 94.37571">Totalpersemester</tspan></text>
<text
       id="text360"
       style="font-variant:normal;font-weight:normal;font-size:9.96259975px;font-family:CMR10;-inkscape-font-specification:CMR10;writing-mode:lr-tb;fill:#000000;fill-opacity:1;fill-rule:nonzero;stroke:none"
       transform="matrix(1,0,0,-1,348.571,8.391)"><tspan
         id="tspan362"
         y="0"
         x="0 4.9812999 9.9625998">447</tspan></text>
<text
       id="text364"
       style="font-variant:normal;font-weight:normal;font-size:9.96259975px;font-family:CMMI10;-inkscape-font-specification:CMMI10;writing-mode:lr-tb;fill:#000000;fill-opacity:1;fill-rule:nonzero;stroke:none"
       transform="matrix(1,0,0,-1,363.515,8.391)"><tspan
         id="tspan366"
         y="0"
         x="0">.</tspan></text>
<text
       id="text368"
       style="font-variant:normal;font-weight:normal;font-size:9.96259975px;font-family:CMR10;-inkscape-font-specification:CMR10;writing-mode:lr-tb;fill:#000000;fill-opacity:1;fill-rule:nonzero;stroke:none"
       transform="matrix(1,0,0,-1,366.282,8.391)"><tspan
         id="tspan370"
         y="0"
         x="0 4.9812999 11.626354 15.50081 20.482109 25.463409">06(537</tspan></text>
<text
       id="text372"
       style="font-variant:normal;font-weight:normal;font-size:9.96259975px;font-family:CMMI10;-inkscape-font-specification:CMMI10;writing-mode:lr-tb;fill:#000000;fill-opacity:1;fill-rule:nonzero;stroke:none"
       transform="matrix(1,0,0,-1,396.724,8.391)"><tspan
         id="tspan374"
         y="0"
         x="0">.</tspan></text>
<text
       id="text376"
       style="font-variant:normal;font-weight:normal;font-size:9.96259975px;font-family:CMR10;-inkscape-font-specification:CMR10;writing-mode:lr-tb;fill:#000000;fill-opacity:1;fill-rule:nonzero;stroke:none"
       transform="matrix(1,0,0,-1,399.491,8.391)"><tspan
         id="tspan378"
         y="0"
         x="0 4.9812999 9.9625998">03)</tspan></text>
<g
       transform="translate(345.184,19.051)"
       id="g380"><path
         id="path382"
         style="fill:none;stroke:#000000;stroke-width:0.398;stroke-linecap:butt;stroke-linejoin:miter;stroke-miterlimit:10;stroke-dasharray:none;stroke-opacity:1"
         d="M 0,0 71.532,0" /></g><g
       transform="translate(345.383,2.712)"
       id="g384"><path
         id="path386"
         style="fill:none;stroke:#000000;stroke-width:0.398;stroke-linecap:butt;stroke-linejoin:miter;stroke-miterlimit:10;stroke-dasharray:none;stroke-opacity:1"
         d="M 0,0 0,16.339" /></g><g
       transform="translate(416.517,2.712)"
       id="g388"><path
         id="path390"
         style="fill:none;stroke:#000000;stroke-width:0.398;stroke-linecap:butt;stroke-linejoin:miter;stroke-miterlimit:10;stroke-dasharray:none;stroke-opacity:1"
         d="M 0,0 0,16.339" /></g><g
       transform="translate(345.184,2.712)"
       id="g392"><path
         id="path394"
         style="fill:none;stroke:#000000;stroke-width:0.398;stroke-linecap:butt;stroke-linejoin:miter;stroke-miterlimit:10;stroke-dasharray:none;stroke-opacity:1"
         d="M 0,0 71.532,0" /></g><g
       transform="translate(0,0.399)"
       id="g396"><path
         id="path398"
         style="fill:none;stroke:#000000;stroke-width:0.79699999;stroke-linecap:butt;stroke-linejoin:miter;stroke-miterlimit:10;stroke-dasharray:none;stroke-opacity:1"
         d="M 0,0 422.693,0" /></g></g></svg>